<?xml version="1.0" standalone="no"?>
<!DOCTYPE svg PUBLIC "-//W3C//DTD SVG 20010904//EN"
 "http://www.w3.org/TR/2001/REC-SVG-20010904/DTD/svg10.dtd">
<svg version="1.0" xmlns="http://www.w3.org/2000/svg"
 width="200.000000pt" height="200.000000pt" viewBox="0 0 200.000000 200.000000"
 preserveAspectRatio="xMidYMid meet">

<g transform="translate(0.000000,200.000000) scale(0.100000,-0.100000)"
fill="#000000" stroke="none">
<path d="M827 1985 c-393 -75 -694 -355 -798 -745 -19 -72 -23 -110 -23 -240
1 -135 4 -167 27 -254 94 -352 358 -615 714 -713 87 -24 115 -27 253 -27 135
1 168 4 254 27 352 94 615 358 713 714 24 87 27 115 27 253 -1 136 -4 168 -27
255 -78 289 -291 539 -563 660 -164 73 -405 102 -577 70z m479 -510 c80 -33
108 -89 85 -166 -9 -29 -22 -45 -55 -64 -23 -14 -55 -25 -70 -25 -27 0 -28 2
-24 43 9 81 -19 107 -128 122 -108 14 -194 -42 -194 -128 0 -78 48 -126 208
-206 72 -36 136 -91 159 -135 23 -44 19 -123 -8 -182 -86 -183 -399 -306 -596
-233 -70 27 -136 88 -151 142 -24 86 33 192 124 234 98 45 137 11 65 -55 -33
-30 -41 -44 -41 -72 0 -50 40 -103 97 -131 68 -34 208 -34 269 -2 113 61 138
180 54 262 -22 21 -85 62 -140 91 -193 102 -237 196 -156 334 14 24 42 58 63
76 44 39 162 97 224 110 59 12 168 5 215 -15z"/>
</g>
</svg>
